<svg xmlns="http://www.w3.org/2000/svg" xmlns:xlink="http://www.w3.org/1999/xlink" version="1.1" id="Capa_1" x="0px" y="0px" viewBox="0 0 1000 1000" style="enable-background:new 0 0 1000 1000;" xml:space="preserve">
<style type="text/css">
	.st0{fill:none;}
	.st1{fill:#D8E1EA;}
	.st2{fill:#758290;}
	.st3{fill:#758290;stroke:#758290;stroke-width:3;stroke-miterlimit:10;}
	.st4{fill:none;stroke:#758290;stroke-width:3;stroke-miterlimit:10;}
</style>
<g>
	<rect x="36" y="156" class="st0" width="930" height="808"/>
	<g>
		<rect x="22" y="143" class="st1" width="958" height="122"/>
	</g>
	<path class="st1" d="M22,149v829h958V149v-7H22V149z M966,964H36V156h930V964z"/>
</g>
<g>
	<rect x="45" y="177" class="st2" width="610" height="60"/>
</g>
<polygon class="st3" points="895,194.1 944.2,194.1 919.6,218.8 "/>
<g>
	<rect x="22" y="20" class="st1" width="958" height="122"/>
</g>
<g>
	<rect x="45" y="54" class="st2" width="442" height="60"/>
</g>
<polyline class="st3" points="945.2,71.1 919.6,95.8 896,71.1 "/>
<line class="st4" x1="896" y1="71.1" x2="945.2" y2="71.1"/>
<line class="st4" x1="22" y1="142" x2="980" y2="142"/>
<g>
	<line class="st1" x1="78" y1="316" x2="708" y2="316"/>
	<rect x="78" y="301" class="st2" width="630" height="30"/>
</g>
<g>
	<line class="st1" x1="78" y1="381" x2="542" y2="381"/>
	<rect x="78" y="371" class="st2" width="464" height="20"/>
</g>
<g>
	<rect x="88" y="450" class="st1" width="218" height="200"/>
	<path class="st2" d="M311,655H83V445h228V655z M93,645h208V455H93V645z"/>
</g>
<g>
	<path class="st2" d="M197.4,548.2c18,0,32.6-17.7,32.6-39.6c0-21.9-4.8-39.6-32.6-39.6s-32.6,17.7-32.6,39.6   C164.9,530.5,179.5,548.2,197.4,548.2z"/>
	<path class="st2" d="M135.9,608.7C135.9,607.3,135.9,608.3,135.9,608.7L135.9,608.7z"/>
	<path class="st2" d="M259,609.7C259,609.3,259,607.2,259,609.7L259,609.7z"/>
	<path class="st2" d="M258.9,607.1c-0.6-38.1-5.6-48.9-43.6-55.8c0,0-5.4,6.8-17.8,6.8c-12.5,0-17.8-6.8-17.8-6.8   c-37.6,6.8-42.9,17.5-43.6,54.6c-0.1,3-0.1,3.2-0.1,2.8c0,0.7,0,1.9,0,4c0,0,9.1,18.3,61.5,18.3c52.5,0,61.5-18.3,61.5-18.3   c0-1.4,0-2.3,0-3C259,609.9,259,609.5,258.9,607.1z"/>
</g>
<g>
	<line class="st1" x1="78" y1="756" x2="542" y2="756"/>
	<rect x="78" y="746" class="st2" width="464" height="20"/>
</g>
<g>
	<line class="st2" x1="78" y1="808" x2="628" y2="808"/>
	<rect x="78" y="788" class="st1" width="550" height="40"/>
</g>
<g>
	<line class="st2" x1="75" y1="918" x2="625" y2="918"/>
	<rect x="75" y="898" class="st1" width="550" height="40"/>
</g>
<g>
	<line class="st1" x1="78" y1="870" x2="450" y2="870"/>
	<rect x="78" y="860" class="st2" width="372" height="20"/>
</g>
</svg>