<svg xmlns="http://www.w3.org/2000/svg" xmlns:xlink="http://www.w3.org/1999/xlink" version="1.1" id="Capa_1" x="0px" y="0px" viewBox="0 0 1000 1000" style="enable-background:new 0 0 1000 1000;" xml:space="preserve">
<style type="text/css">
	.st0{fill:#D8E1EA;}
	.st1{fill:#A8B9C6;}
	.st2{fill:#758290;stroke:#758290;stroke-width:3;stroke-miterlimit:10;}
	.st3{fill:#758290;}
</style>
<g>
	<path class="st0" d="M60.5,122.5V271v0.6V419v1.1v146.8v1.1V716v149.1v13.8H947v-13.8V716V568v-1.1V420.1V419V271.6V271V122.5H60.5   z M933.2,865.1h-859V729.7h859V865.1z M933.2,716h-859V580.7h859V716z M933.2,566.9h-859V432.7h859V566.9z M933.2,419h-859V284.8   h859V419z M933.2,271h-859V136.3h859V271z"/>
</g>
<g id="Capa_2">
	<g>
		<rect x="713.6" y="315.7" class="st1" width="164" height="68.8"/>
	</g>
	<polygon class="st2" points="826,341 853.5,341 839.8,357  "/>
	<g>
		<rect x="550.8" y="327.2" class="st3" width="75.7" height="45.9"/>
	</g>
	<g>
		<rect x="129.9" y="327.2" class="st3" width="367" height="45.9"/>
	</g>
	<g>
		<rect x="713.6" y="466" class="st1" width="164" height="68.8"/>
	</g>
	<polygon class="st2" points="826,493.5 853.5,493.5 839.8,509.6  "/>
	<g>
		<rect x="550.8" y="477.4" class="st3" width="75.7" height="45.9"/>
	</g>
	<g>
		<rect x="129.9" y="477.4" class="st3" width="261.5" height="45.9"/>
	</g>
	<g id="Capa_3">
		<g>
			<rect x="128.7" y="178.1" class="st3" width="297" height="45.9"/>
		</g>
		<g>
			<rect x="549.6" y="178.1" class="st3" width="75.7" height="45.9"/>
		</g>
		<g>
			<rect x="712.5" y="166.7" class="st1" width="164" height="68.8"/>
		</g>
		<polygon class="st2" points="824.9,191.9 852.4,191.9 838.6,207.9   "/>
	</g>
	<g id="Capa_3_copia">
		<g>
			<rect x="131" y="627.7" class="st3" width="204.1" height="45.9"/>
		</g>
		<g>
			<rect x="551.9" y="627.7" class="st3" width="75.7" height="45.9"/>
		</g>
		<g>
			<rect x="714.8" y="616.2" class="st1" width="164" height="68.8"/>
		</g>
		<polygon class="st2" points="827.2,641.4 854.7,641.4 840.9,657.5   "/>
	</g>
	<g id="Capa_3_copia_2">
		<g>
			<rect x="131" y="774.5" class="st3" width="355.5" height="45.9"/>
		</g>
		<g>
			<rect x="551.9" y="774.5" class="st3" width="75.7" height="45.9"/>
		</g>
		<g>
			<rect x="714.8" y="763" class="st1" width="164" height="68.8"/>
		</g>
		<polygon class="st2" points="827.2,788.2 854.7,788.2 840.9,804.3   "/>
	</g>
</g>
</svg>