<svg xmlns="http://www.w3.org/2000/svg" xmlns:xlink="http://www.w3.org/1999/xlink" version="1.1" id="Capa_1" x="0px" y="0px" viewBox="0 0 1000 1000" style="enable-background:new 0 0 1000 1000;" xml:space="preserve">
<style type="text/css">
	.st0{fill:none;}
	.st1{fill:#D8E1EA;}
	.st2{fill:#758290;}
	.st3{fill:#758290;stroke:#758290;stroke-width:3;stroke-miterlimit:10;}
	.st4{fill:#D8E1EA;stroke:#758290;stroke-width:4;stroke-miterlimit:10;}
	.st5{fill:#758290;stroke:#1D1D1B;stroke-width:0.5;stroke-miterlimit:10;}
	.st6{fill:#D8E1EA;stroke:#758290;stroke-width:3;stroke-miterlimit:10;}
</style>
<g>
	<rect x="36" y="156" class="st0" width="930" height="808"/>
	<g>
		<rect x="22" y="143" class="st1" width="958" height="122"/>
	</g>
	<path class="st1" d="M22,149v829h958V149v-7H22V149z M966,964H36V156h930V964z"/>
</g>
<g>
	<rect x="45" y="177" class="st2" width="610" height="60"/>
</g>
<polygon class="st3" points="895,194.1 944.2,194.1 919.6,218.8 "/>
<rect x="458.3" y="510" class="st4" width="274" height="221"/>
<path class="st4" d="M198.6,796.5c-3.9-15.9-8.8-38.3-11.5-61l-0.3,0.1c-0.4-6-0.7-12-0.7-17.6c0-12.2,0-26.7,0-42.6H186  c0-5.5,0-11.1,0-16.9h-7.6v-26.2v-3.7v-32.8h7.7c0-7.5,0-14.9,0-22.4H186c0.1-9.1,0.1-18,0.1-26.8c0-7.5,0.1-14.5,0.3-21.3h0.3  c1.2-25.2,4.2-43.1,7-55l-12.1-2.9l3.1-13.6l-24.6-5.7c0,0-5.4,25.3-7.7,75.8H152c-0.4,12-0.6,25.1-0.6,39.5c0,3.3,0,6.6,0,9.9  c0,2,0,3.9,0,5.8c0,17.5,0,33.9,0,49.3c0,1.2,0,2.5,0,3.7c0,15.2,0,29.4,0,43.1c0,1.4,0,2.8,0,4.2c0,13.3,0,26.3,0,39.3  c0,9.6,0.6,19.2,1.5,28.5l0.5-0.1c5.3,40.5,16.3,73.8,16.3,73.8l14-5.7l-3.1-14.3L198.6,796.5z"/>
<polygon class="st4" points="397.8,554.9 397.8,510.3 364.4,510.3 364.4,554.9 351,554.9 351,687.3 364.4,687.3 364.4,731.6   397.8,731.6 397.8,687.3 444.5,687.3 444.5,554.9 "/>
<polygon class="st4" points="749.7,497.6 749.7,629.1 749.7,638.5 749.7,744.5 766.5,744.5 766.5,638.5 766.5,629.1 766.5,497.6 "/>
<path class="st4" d="M399,444v0.1c-18.8,1.4-36,8.4-50.1,19.2l26.8,30.4c6.9-5,14.7-8.5,23.4-10.1v-1c1.6-0.2,3.4-0.3,5-0.3  c0,0,333.3,0.1,335.3,0.5V444H399z"/>
<path class="st4" d="M364.2,735.3H353v-24.1v-1.1v-11.8h-14.2v-23.9v-5.6v-37.6v-5.8v-52.1v-3.1v-27h14.3V543l0.5-35.8h8.8  c2.8-4.4,4.4-6.3,8.5-9.8l-26.7-30.3c-17,15-28.4,36.1-31,59.9h-0.7c0,0.3,0,0.6,0,0.9v45.3h0.1v52.1v5.8v37.6v5.6v36.8h0.2  c1.6,24.3,12.4,46.1,29.1,61.8l28.3-31.6C366.5,737.8,367.2,739.4,364.2,735.3z"/>
<path class="st4" d="M410.7,756.7v0.1h-0.1L410.7,756.7c-13.4,0-25.7-4.3-35.6-11.5l-28.4,31.9c16.2,13.4,36.9,21.5,59.5,21.5h4.9  v-0.1h328.2v-41.7H410.7z"/>
<path class="st4" d="M260.7,786.9c0,0-16.4-31.2-21.2-55l-0.3-0.1c-0.9-5.8-1.3-11.7-1.3-17.9c0-7.6,0-19.7,0-34.4v-3.3v-44h0.1  v-58.7h-0.1c0-14.1,0-25.7,0-32.9c0-5.7,0.2-11.2,0.5-16.6h-0.1c2.5-35.2,9.3-56.4,9.3-56.4l-36.4-8.5c-4.3,9.4-10.4,29.2-13.2,68.1  h0.4c-0.5,10.1-0.8,21.2-0.8,33.8c0,4.4,0,8.5,0,12.6c0,0.7,0,1.4,0,2.1c0,20.9,0,38.2,0,52.9c0,1.2,0,2.5,0,3.7c0,16.8,0,30.2,0,44  c0,1.1,0,2.2,0,3.3c0,7.1,0,14.4,0,22.5c0,13.4,1,25.9,2.7,37.5l0.3-0.1c5.3,29.4,14.8,51.6,20.9,63.6L260.7,786.9z"/>
<path class="st4" d="M311.4,759.7l-11,2.8c0,0-8.2-10.3-8.2-27.3v-45.5V686v-63.5V616v-38.6V576v-58.8h-0.1  c0.4-16.7,7.7-26.2,7.7-26.2l6.3,0.2c3.4-7.8,7.8-15.3,12.9-22l-15-11.3l-9.2,12.9l-18.9-13.4c-10,17.9-16.2,38.2-17.7,59.8H258  c0,1.1-0.1,2.4-0.1,3.5V576v1.4V616v6.5V686v3.7v29.7c0,5.4,0.4,10.9,1,16.1h0.5c3.1,21.5,11,41.3,22.6,58.5l16.1-12.4l9.3,11.5  l17.5-15C319.7,772.7,315.2,766.4,311.4,759.7z"/>
<path class="st4" d="M754.6,814.1H690h-0.2H465.3V814h-59.6c-7.1,0.1-14.1-0.6-21-2v19.2h26.1v25.4l0.8,0  c9.4,6.6,155.2,105.3,332.9,0.1l0.8,0v-25.4h25.1V813C765.3,813.6,760,814.1,754.6,814.1z"/>
<path class="st4" d="M746.9,409.8V385h-2.5c-171.1-112.5-330.3-7.6-341.6,0.1h-1c-0.1,0-0.3,0-0.4,0v25.3h-25.7v20.1  c10.3-2.8,21.4-4.3,32.9-4.3l343.7-0.1c6.8,0.1,13.4,0.6,19.9,1.6v-17.9H746.9z"/>
<rect x="787.5" y="510.4" class="st5" width="48.5" height="221"/>
<g>
	<rect x="22" y="20" class="st1" width="958" height="122"/>
</g>
<g>
	<rect x="45" y="54" class="st2" width="442" height="60"/>
</g>
<polyline class="st3" points="945.2,71.1 919.6,95.8 896,71.1 "/>
<line class="st3" x1="896" y1="71.1" x2="945.2" y2="71.1"/>
<line class="st6" x1="22" y1="142" x2="980" y2="142"/>
</svg>